HIERARCHY
ROOT reference
{
  OFFSET 0 0 0
  CHANNELS 6 Xposition Yposition Zposition Zrotation Xrotation Yrotation
  JOINT Hips
  {
    OFFSET -49.1321 103.229 161.364
    CHANNELS 6 Xposition Yposition Zposition Zrotation Xrotation Yrotation
    JOINT Spine
    {
      OFFSET 0 7.86299 0
      CHANNELS 6 Xposition Yposition Zposition Zrotation Xrotation Yrotation
      JOINT Spine1
      {
        OFFSET 0 22.6654 0
        CHANNELS 6 Xposition Yposition Zposition Zrotation Xrotation Yrotation
        JOINT Neck
        {
          OFFSET 0 22.5723 2.05203
          CHANNELS 6 Xposition Yposition Zposition Zrotation Xrotation Yrotation
          JOINT Head
          {
            OFFSET 0 13.4246 -1.9178
            CHANNELS 6 Xposition Yposition Zposition Zrotation Xrotation Yrotation
            End Site
            {
              OFFSET 0 23.9725 0
            }
          }
        }
        JOINT LeftShoulder
        {
          OFFSET 3.7941 20.1358 -0.319195
          CHANNELS 6 Xposition Yposition Zposition Zrotation Xrotation Yrotation
          JOINT LeftArm
          {
            OFFSET 12.7665 0 0
            CHANNELS 6 Xposition Yposition Zposition Zrotation Xrotation Yrotation
            JOINT LeftForeArm
            {
              OFFSET 28.396 0 0
              CHANNELS 6 Xposition Yposition Zposition Zrotation Xrotation Yrotation
              JOINT LeftHand
              {
                OFFSET 28.7929 0 0
                CHANNELS 6 Xposition Yposition Zposition Zrotation Xrotation Yrotation
                End Site
                {
                  OFFSET 14.3835 0 0
                }
              }
            }
          }
        }
        JOINT RightShoulder
        {
          OFFSET -3.85764 20.1358 -0.319195
          CHANNELS 6 Xposition Yposition Zposition Zrotation Xrotation Yrotation
          JOINT RightArm
          {
            OFFSET -12.7665 0 0
            CHANNELS 6 Xposition Yposition Zposition Zrotation Xrotation Yrotation
            JOINT RightForeArm
            {
              OFFSET -28.396 0 0
              CHANNELS 6 Xposition Yposition Zposition Zrotation Xrotation Yrotation
              JOINT RightHand
              {
                OFFSET -28.7929 0 0
                CHANNELS 6 Xposition Yposition Zposition Zrotation Xrotation Yrotation
                End Site
                {
                  OFFSET -14.3835 0 0
                }
              }
            }
          }
        }
      }
    }
    JOINT LeftUpLeg
    {
      OFFSET 9.58901 0 0
      CHANNELS 6 Xposition Yposition Zposition Zrotation Xrotation Yrotation
      JOINT LeftLeg
      {
        OFFSET 0 -41.7092 0
        CHANNELS 6 Xposition Yposition Zposition Zrotation Xrotation Yrotation
        JOINT LeftFoot
        {
          OFFSET 0 -41.5308 0
          CHANNELS 6 Xposition Yposition Zposition Zrotation Xrotation Yrotation
          JOINT LeftToeBase
          {
            OFFSET 0 -6.23286 14.3835
            CHANNELS 6 Xposition Yposition Zposition Zrotation Xrotation Yrotation
            End Site
            {
              OFFSET 0 0 3.8356
            }
          }
        }
      }
    }
    JOINT RightUpLeg
    {
      OFFSET -9.58901 0 0
      CHANNELS 6 Xposition Yposition Zposition Zrotation Xrotation Yrotation
      JOINT RightLeg
      {
        OFFSET 0 -41.7092 0
        CHANNELS 6 Xposition Yposition Zposition Zrotation Xrotation Yrotation
        JOINT RightFoot
        {
          OFFSET 0 -41.5308 0
          CHANNELS 6 Xposition Yposition Zposition Zrotation Xrotation Yrotation
          JOINT RightToeBase
          {
            OFFSET 0 -6.23286 14.3835
            CHANNELS 6 Xposition Yposition Zposition Zrotation Xrotation Yrotation
            End Site
            {
              OFFSET 0 0 3.8356
            }
          }
        }
      }
    }
  }
}
MOTION
Frames:	6
Frame Time:	0.004
0 0 0 0 0 -0 -13.4529 84.7541 -199.411 -0.800406 -0.994111 3.64966 0 7.86299 2.84217e-014 1.77876 -5.55813 0.516184 1.77636e-015 22.6654 -2.84217e-014 -1.05531 -0.581899 0.416435 0 22.5723 2.05203 0.0916632 20.1067 -1.18277 0 13.4246 -1.9178 3.4148 -0.559912 -0.723646 3.7941 20.1358 -0.319195 7.50528 2.62402 2.78455 12.7665 0 0 -11.1655 0.970854 -7.83405 28.396 0 0 1.42406 5.90088 -1.12329 28.7929 -2.84217e-014 -2.84217e-014 8.41343 5.61099 -4.1505 -3.85764 20.1358 -0.319195 -4.63223 11.1745 8.52785 -12.7665 1.42109e-014 2.84217e-014 10.5015 3.95631 0.651097 -28.396 0 0 -2.28338 -1.06051 1.48992 -28.7929 -1.42109e-014 -2.84217e-014 -10.3864 -0.360207 -7.36783 9.58901 0 2.84217e-014 3.76929 6.34263 -1.80523 1.77636e-015 -41.7092 2.84217e-014 -2.81826 -3.94677 -6.06061 0 -41.5308 0 3.99772 -9.53756 21.3996 0 -6.23286 14.3835 0 0 -0 -9.58901 0 0 -2.88126 2.46285 1.6346 3.55271e-015 -41.7092 -2.84217e-014 2.73667 2.38663 -5.7866 0 -41.5308 2.84217e-014 1.93051 -10.746 -9.79598 0 -6.23286 14.3835 -0 -1.59028e-015 -0 
0 0 0 0 0 -0 -13.4529 84.7541 -199.411 -0.80045 -0.995999 3.64025 1.77636e-015 7.86299 0 1.79212 -5.55813 0.516184 1.77636e-015 22.6654 0 -1.06473 -0.581899 0.416435 0 22.5723 2.05203 0.095393 20.1068 -1.16725 -3.55271e-015 13.4246 -1.9178 3.38721 -0.559914 -0.711222 3.7941 20.1358 -0.319195 7.50448 2.62398 2.80203 12.7665 0 0 -11.147 0.928405 -7.84649 28.396 0 0 1.40681 5.87901 -1.12325 28.7929 -2.84217e-014 0 8.47037 5.588 -4.13443 -3.85764 20.1358 -0.319195 -4.64629 11.1745 8.52785 -12.7665 -2.84217e-014 2.84217e-014 10.5006 3.95631 0.651097 -28.396 0 0 -2.26103 -1.06065 1.48992 -28.7929 0 2.84217e-014 -10.4217 -0.361768 -7.33167 9.58901 0 -2.84217e-014 3.77129 6.34193 -1.82353 0 -41.7092 2.84217e-014 -2.83113 -3.93367 -6.08019 0 -41.5308 0 4.03239 -9.54035 21.4412 0 -6.23286 14.3835 7.95139e-016 1.59028e-015 -3.18055e-015 -9.58901 0 0 -2.8821 2.46282 1.6541 3.55271e-015 -41.7092 0 2.73667 2.38663 -5.7866 0 -41.5308 -2.84217e-014 1.92955 -10.756 -9.79631 0 -6.23286 14.3835 -3.97569e-016 7.95139e-016 1.59028e-015 
0 0 0 0 0 -0 -13.45 84.7541 -199.411 -0.799743 -1.01197 3.62283 0 7.86299 -2.84217e-014 1.79766 -5.54853 0.516176 0 22.6654 -2.84217e-014 -1.06415 -0.581899 0.416435 1.77636e-015 22.5723 2.05203 0.084818 20.1072 -1.16452 3.55271e-015 13.4246 -1.9178 3.38743 -0.554519 -0.708909 3.7941 20.1358 -0.319195 7.50706 2.62398 2.7984 12.7665 2.84217e-014 0 -11.1545 0.908141 -7.83728 28.396 -2.84217e-014 2.84217e-014 1.42081 5.86687 -1.12323 28.7929 0 2.84217e-014 8.45632 5.57687 -4.13031 -3.85764 20.1358 -0.319195 -4.64836 11.1765 8.51511 -12.7665 -2.84217e-014 -2.84217e-014 10.4903 3.96864 0.651107 -28.396 -2.84217e-014 0 -2.2557 -1.04731 1.49764 -28.7929 1.42109e-014 0 -10.4145 -0.349833 -7.32026 9.58901 -2.84217e-014 -2.84217e-014 3.76799 6.36442 -1.80508 0 -41.7092 -2.84217e-014 -2.83574 -3.93642 -6.05301 0 -41.5308 -2.84217e-014 4.03692 -9.55153 21.4192 0 -6.23286 14.3835 7.95139e-016 0 -9.54166e-015 -9.58901 -1.42109e-014 0 -2.8824 2.46281 1.66121 0 -41.7092 0 2.73667 2.38663 -5.7866 3.55271e-015 -41.5308 -2.84217e-014 1.95322 -10.7622 -9.79651 0 -6.23286 14.3835 -5.96354e-016 1.59028e-015 -3.18055e-015 
0 0 0 0 0 -0 -13.4455 84.7541 -199.411 -0.800059 -1.0105 3.61026 0 7.86299 0 1.80997 -5.559 0.516185 -1.77636e-015 22.6654 2.84217e-014 -1.08341 -0.581899 0.416435 0 22.5723 2.05203 0.088695 20.123 -1.15723 0 13.4246 -1.9178 3.3706 -0.576117 -0.703077 3.7941 20.1358 -0.319195 7.52112 2.62397 2.80619 12.7665 2.84217e-014 0 -11.1605 0.882521 -7.83435 28.396 0 -2.84217e-014 1.42117 5.85357 -1.1232 28.7929 0 0 8.48428 5.56124 -4.14708 -3.85764 20.1358 -0.319195 -4.65051 11.1525 8.52261 -12.7665 -4.26326e-014 0 10.4925 4.00304 0.643966 -28.396 0 0 -2.24544 -1.03844 1.5051 -28.7929 -2.84217e-014 0 -10.4215 -0.341753 -7.30736 9.58901 1.42109e-014 2.84217e-014 3.75864 6.36417 -1.80166 8.88178e-016 -41.7092 -2.84217e-014 -2.83303 -3.93069 -6.05679 0 -41.5308 0 4.04598 -9.55194 21.427 0 -6.23286 14.3835 -7.95139e-016 1.59028e-015 -3.18055e-015 -9.58901 0 0 -2.88297 2.4628 1.67441 3.55271e-015 -41.7092 0 2.73716 2.39147 -5.78663 3.55271e-015 -41.5308 0 1.94601 -10.7643 -9.78947 7.10543e-015 -6.23286 14.3835 4.41391e-032 -1.59028e-015 1.59028e-015 
0 0 0 0 0 -0 -13.4409 84.7541 -199.411 -0.799811 -1.01699 3.60114 1.77636e-015 7.86299 0 1.82118 -5.56219 0.516028 0 22.6654 2.84217e-014 -1.08431 -0.580225 0.416435 0 22.5723 2.05203 0.062618 20.1113 -1.1529 0 13.4246 -1.9178 3.38516 -0.553969 -0.698013 3.7941 20.1358 -0.319195 7.51987 2.62394 2.81728 12.7665 0 0 -11.1534 0.853375 -7.84196 28.396 0 0 1.41385 5.83958 -1.12317 28.7929 0 0 8.51068 5.54642 -4.14402 -3.85764 20.1358 -0.319195 -4.66105 11.1555 8.51867 -12.7665 1.42109e-014 5.68434e-014 10.4916 4.01397 0.64662 -28.396 -1.42109e-014 0 -2.24412 -1.02665 1.53139 -28.7929 0 -2.84217e-014 -10.3585 -0.329762 -7.34797 9.58901 0 0 3.75639 6.364 -1.79983 0 -41.7092 0 -2.83577 -3.92171 -6.05601 0 -41.5308 0 4.02676 -9.55249 21.4357 -7.10543e-015 -6.23286 14.3835 -0 0 6.36111e-015 -9.58901 -1.42109e-014 2.84217e-014 -2.88324 2.46279 1.6808 0 -41.7092 -2.84217e-014 2.73848 2.39982 -5.79791 -3.55271e-015 -41.5308 0 1.9328 -10.7624 -9.77356 0 -6.23286 14.3835 -1.98785e-016 -1.59028e-015 -1.59028e-015 
0 0 0 0 0 -0 -13.437 84.7541 -199.409 -0.799289 -1.02376 3.59324 0 7.86299 -2.84217e-014 1.8305 -5.56123 0.515948 0 22.6654 0 -1.08834 -0.578783 0.416435 0 22.5723 2.05203 0.064657 20.1264 -1.14444 0 13.4246 -1.9178 3.3567 -0.570069 -0.692834 3.7941 20.1358 -0.319195 7.51687 2.62396 2.81085 12.7665 2.84217e-014 0 -11.1578 0.839869 -7.8227 28.396 0 2.84217e-014 1.42615 5.82736 -1.12622 28.7929 2.84217e-014 2.84217e-014 8.49682 5.53344 -4.16327 -3.85764 20.1358 -0.319195 -4.66522 11.107 8.49264 -12.7665 -1.42109e-014 -2.84217e-014 10.4878 4.06265 0.679064 -28.396 0 0 -2.23072 -1.00767 1.52546 -28.7929 0 0 -10.4055 -0.308391 -7.3442 9.58901 0 0 3.75457 6.36939 -1.79804 8.88178e-016 -41.7092 0 -2.83877 -3.90542 -6.05446 0 -41.5308 -2.84217e-014 4.03597 -9.57832 21.433 0 -6.23286 14.3835 -0 0 6.36111e-015 -9.58901 0 -2.84217e-014 -2.88937 2.46278 1.6858 -3.55271e-015 -41.7092 0 2.73748 2.40588 -5.7599 3.55271e-015 -41.5308 0 1.93363 -10.776 -9.81687 0 -6.23286 14.3835 -1.98785e-016 7.95139e-016 -0 
